<svg id="SvgjsSvg1001" width="1514" height="917" xmlns="http://www.w3.org/2000/svg" version="1.1" xmlns:xlink="http://www.w3.org/1999/xlink" xmlns:svgjs="http://svgjs.com/svgjs"><defs id="SvgjsDefs1002"><marker id="SvgjsMarker1092" markerWidth="14" markerHeight="10" refX="10" refY="5" viewBox="0 0 14 10" orient="auto" markerUnits="userSpaceOnUse" stroke-dasharray="0,0"><path id="SvgjsPath1093" d="M0,0 L14,5 L0,10 L0,0" fill="#323232" stroke="#323232" stroke-width="1"></path></marker><marker id="SvgjsMarker1096" markerWidth="14" markerHeight="10" refX="10" refY="5" viewBox="0 0 14 10" orient="auto" markerUnits="userSpaceOnUse" stroke-dasharray="0,0"><path id="SvgjsPath1097" d="M0,0 L14,5 L0,10 L0,0" fill="#323232" stroke="#323232" stroke-width="1"></path></marker><marker id="SvgjsMarker1100" markerWidth="14" markerHeight="10" refX="10" refY="5" viewBox="0 0 14 10" orient="auto" markerUnits="userSpaceOnUse" stroke-dasharray="0,0"><path id="SvgjsPath1101" d="M0,0 L14,5 L0,10 L0,0" fill="#323232" stroke="#323232" stroke-width="1"></path></marker><marker id="SvgjsMarker1104" markerWidth="14" markerHeight="10" refX="10" refY="5" viewBox="0 0 14 10" orient="auto" markerUnits="userSpaceOnUse" stroke-dasharray="0,0"><path id="SvgjsPath1105" d="M0,0 L14,5 L0,10 L0,0" fill="#323232" stroke="#323232" stroke-width="1"></path></marker><marker id="SvgjsMarker1108" markerWidth="14" markerHeight="10" refX="10" refY="5" viewBox="0 0 14 10" orient="auto" markerUnits="userSpaceOnUse" stroke-dasharray="0,0"><path id="SvgjsPath1109" d="M0,0 L14,5 L0,10 L0,0" fill="#323232" stroke="#323232" stroke-width="1"></path></marker><marker id="SvgjsMarker1112" markerWidth="14" markerHeight="10" refX="10" refY="5" viewBox="0 0 14 10" orient="auto" markerUnits="userSpaceOnUse" stroke-dasharray="0,0"><path id="SvgjsPath1113" d="M0,0 L14,5 L0,10 L0,0" fill="#323232" stroke="#323232" stroke-width="1"></path></marker><marker id="SvgjsMarker1116" markerWidth="14" markerHeight="10" refX="10" refY="5" viewBox="0 0 14 10" orient="auto" markerUnits="userSpaceOnUse" stroke-dasharray="0,0"><path id="SvgjsPath1117" d="M0,0 L14,5 L0,10 L0,0" fill="#323232" stroke="#323232" stroke-width="1"></path></marker><marker id="SvgjsMarker1120" markerWidth="14" markerHeight="10" refX="10" refY="5" viewBox="0 0 14 10" orient="auto" markerUnits="userSpaceOnUse" stroke-dasharray="0,0"><path id="SvgjsPath1121" d="M0,0 L14,5 L0,10 L0,0" fill="#323232" stroke="#323232" stroke-width="1"></path></marker><marker id="SvgjsMarker1130" markerWidth="14" markerHeight="10" refX="10" refY="5" viewBox="0 0 14 10" orient="auto" markerUnits="userSpaceOnUse" stroke-dasharray="0,0"><path id="SvgjsPath1131" d="M0,0 L14,5 L0,10 L0,0" fill="#323232" stroke="#323232" stroke-width="1"></path></marker><marker id="SvgjsMarker1138" markerWidth="14" markerHeight="10" refX="10" refY="5" viewBox="0 0 14 10" orient="auto" markerUnits="userSpaceOnUse" stroke-dasharray="0,0"><path id="SvgjsPath1139" d="M0,0 L14,5 L0,10 L0,0" fill="#323232" stroke="#323232" stroke-width="1"></path></marker><marker id="SvgjsMarker1152" markerWidth="14" markerHeight="10" refX="10" refY="5" viewBox="0 0 14 10" orient="auto" markerUnits="userSpaceOnUse" stroke-dasharray="0,0"><path id="SvgjsPath1153" d="M0,0 L14,5 L0,10 L0,0" fill="#323232" stroke="#323232" stroke-width="1"></path></marker><marker id="SvgjsMarker1162" markerWidth="14" markerHeight="10" refX="10" refY="5" viewBox="0 0 14 10" orient="auto" markerUnits="userSpaceOnUse" stroke-dasharray="0,0"><path id="SvgjsPath1163" d="M0,0 L14,5 L0,10 L0,0" fill="#323232" stroke="#323232" stroke-width="1"></path></marker><marker id="SvgjsMarker1166" markerWidth="14" markerHeight="10" refX="10" refY="5" viewBox="0 0 14 10" orient="auto" markerUnits="userSpaceOnUse" stroke-dasharray="0,0"><path id="SvgjsPath1167" d="M0,0 L14,5 L0,10 L0,0" fill="#323232" stroke="#323232" stroke-width="1"></path></marker><marker id="SvgjsMarker1170" markerWidth="14" markerHeight="10" refX="10" refY="5" viewBox="0 0 14 10" orient="auto" markerUnits="userSpaceOnUse" stroke-dasharray="0,0"><path id="SvgjsPath1171" d="M0,0 L14,5 L0,10 L0,0" fill="#323232" stroke="#323232" stroke-width="1"></path></marker></defs><g id="SvgjsG1008" transform="translate(25,135)"><path id="SvgjsPath1009" d="M 0 4Q 0 0 4 0L 1460 0Q 1464 0 1464 4L 1464 753Q 1464 757 1460 757L 4 757Q 0 757 0 753Z" stroke="rgba(33,41,48,1)" stroke-width="2" fill-opacity="1" fill="#ffffff"></path><g id="SvgjsG1010"><text id="SvgjsText1011" font-family="微软雅黑" text-anchor="middle" font-size="13px" width="1444px" fill="#323232" font-weight="400" align="middle" lineHeight="125%" anchor="middle" family="微软雅黑" size="13px" weight="400" font-style="" opacity="1" y="367.875" transform="rotate(0)"></text></g></g><g id="SvgjsG1012" transform="translate(148,744)"><path id="SvgjsPath1013" d="M 0 0L 306 0L 306 103L 0 103Z" stroke="rgba(33,41,48,1)" stroke-width="2" fill-opacity="1" fill="#ffffff"></path><g id="SvgjsG1014"><text id="SvgjsText1015" font-family="微软雅黑" text-anchor="middle" font-size="13px" width="286px" fill="#323232" font-weight="400" align="middle" lineHeight="125%" anchor="middle" family="微软雅黑" size="13px" weight="400" font-style="" opacity="1" y="40.875" transform="rotate(0)"></text></g></g><g id="SvgjsG1016" transform="translate(155,751)"><path id="SvgjsPath1017" d="M 0 0L 100 0L 100 40L 0 40Z" stroke="none" fill="none"></path><g id="SvgjsG1018"><text id="SvgjsText1019" font-family="微软雅黑" text-anchor="middle" font-size="13px" width="100px" fill="#323232" font-weight="400" align="middle" lineHeight="125%" anchor="middle" family="微软雅黑" size="13px" weight="400" font-style="" opacity="1" y="9.375" transform="rotate(0)"><tspan id="SvgjsTspan1020" dy="16" x="50"><tspan id="SvgjsTspan1021" style="text-decoration:;">Node01</tspan></tspan></text></g></g><g id="SvgjsG1022" transform="translate(588.5,744)"><path id="SvgjsPath1023" d="M 0 0L 306 0L 306 103L 0 103Z" stroke="rgba(33,41,48,1)" stroke-width="2" fill-opacity="1" fill="#ffffff"></path><g id="SvgjsG1024"><text id="SvgjsText1025" font-family="微软雅黑" text-anchor="middle" font-size="13px" width="286px" fill="#323232" font-weight="400" align="middle" lineHeight="125%" anchor="middle" family="微软雅黑" size="13px" weight="400" font-style="" opacity="1" y="40.875" transform="rotate(0)"></text></g></g><g id="SvgjsG1026" transform="translate(592,751)"><path id="SvgjsPath1027" d="M 0 0L 100 0L 100 40L 0 40Z" stroke="none" fill="none"></path><g id="SvgjsG1028"><text id="SvgjsText1029" font-family="微软雅黑" text-anchor="middle" font-size="13px" width="100px" fill="#323232" font-weight="400" align="middle" lineHeight="125%" anchor="middle" family="微软雅黑" size="13px" weight="400" font-style="" opacity="1" y="9.375" transform="rotate(0)"><tspan id="SvgjsTspan1030" dy="16" x="50"><tspan id="SvgjsTspan1031" style="text-decoration:;">Node02</tspan></tspan></text></g></g><g id="SvgjsG1032" transform="translate(1029,744)"><path id="SvgjsPath1033" d="M 0 0L 306 0L 306 103L 0 103Z" stroke="rgba(33,41,48,1)" stroke-width="2" fill-opacity="1" fill="#ffffff"></path><g id="SvgjsG1034"><text id="SvgjsText1035" font-family="微软雅黑" text-anchor="middle" font-size="13px" width="286px" fill="#323232" font-weight="400" align="middle" lineHeight="125%" anchor="middle" family="微软雅黑" size="13px" weight="400" font-style="" opacity="1" y="40.875" transform="rotate(0)"></text></g></g><g id="SvgjsG1036" transform="translate(1036,751)"><path id="SvgjsPath1037" d="M 0 0L 100 0L 100 40L 0 40Z" stroke="none" fill="none"></path><g id="SvgjsG1038"><text id="SvgjsText1039" font-family="微软雅黑" text-anchor="middle" font-size="13px" width="100px" fill="#323232" font-weight="400" align="middle" lineHeight="125%" anchor="middle" family="微软雅黑" size="13px" weight="400" font-style="" opacity="1" y="9.375" transform="rotate(0)"><tspan id="SvgjsTspan1040" dy="16" x="50"><tspan id="SvgjsTspan1041" style="text-decoration:;">Node03</tspan></tspan></text></g></g><g id="SvgjsG1042" transform="translate(235,778)"><path id="SvgjsPath1043" d="M 0 4Q 0 0 4 0L 54 0Q 58 0 58 4L 58 31Q 58 35 54 35L 4 35Q 0 35 0 31Z" stroke="rgba(33,41,48,1)" stroke-width="2" fill-opacity="1" fill="#ffffff"></path><g id="SvgjsG1044"><text id="SvgjsText1045" font-family="微软雅黑" text-anchor="middle" font-size="13px" width="38px" fill="#323232" font-weight="400" align="middle" lineHeight="125%" anchor="middle" family="微软雅黑" size="13px" weight="400" font-style="" opacity="1" y="6.875" transform="rotate(0)"><tspan id="SvgjsTspan1046" dy="16" x="29"><tspan id="SvgjsTspan1047" style="text-decoration:;">Pod</tspan></tspan></text></g></g><g id="SvgjsG1048" transform="translate(331,778)"><path id="SvgjsPath1049" d="M 0 4Q 0 0 4 0L 54 0Q 58 0 58 4L 58 31Q 58 35 54 35L 4 35Q 0 35 0 31Z" stroke="rgba(33,41,48,1)" stroke-width="2" fill-opacity="1" fill="#ffffff"></path><g id="SvgjsG1050"><text id="SvgjsText1051" font-family="微软雅黑" text-anchor="middle" font-size="13px" width="38px" fill="#323232" font-weight="400" align="middle" lineHeight="125%" anchor="middle" family="微软雅黑" size="13px" weight="400" font-style="" opacity="1" y="6.875" transform="rotate(0)"><tspan id="SvgjsTspan1052" dy="16" x="29"><tspan id="SvgjsTspan1053" style="text-decoration:;">Pod</tspan></tspan></text></g></g><g id="SvgjsG1054" transform="translate(677,778)"><path id="SvgjsPath1055" d="M 0 4Q 0 0 4 0L 54 0Q 58 0 58 4L 58 31Q 58 35 54 35L 4 35Q 0 35 0 31Z" stroke="rgba(33,41,48,1)" stroke-width="2" fill-opacity="1" fill="#ffffff"></path><g id="SvgjsG1056"><text id="SvgjsText1057" font-family="微软雅黑" text-anchor="middle" font-size="13px" width="38px" fill="#323232" font-weight="400" align="middle" lineHeight="125%" anchor="middle" family="微软雅黑" size="13px" weight="400" font-style="" opacity="1" y="6.875" transform="rotate(0)"><tspan id="SvgjsTspan1058" dy="16" x="29"><tspan id="SvgjsTspan1059" style="text-decoration:;">Pod</tspan></tspan></text></g></g><g id="SvgjsG1060" transform="translate(782,778)"><path id="SvgjsPath1061" d="M 0 4Q 0 0 4 0L 54 0Q 58 0 58 4L 58 31Q 58 35 54 35L 4 35Q 0 35 0 31Z" stroke="rgba(33,41,48,1)" stroke-width="2" fill-opacity="1" fill="#ffffff"></path><g id="SvgjsG1062"><text id="SvgjsText1063" font-family="微软雅黑" text-anchor="middle" font-size="13px" width="38px" fill="#323232" font-weight="400" align="middle" lineHeight="125%" anchor="middle" family="微软雅黑" size="13px" weight="400" font-style="" opacity="1" y="6.875" transform="rotate(0)"><tspan id="SvgjsTspan1064" dy="16" x="29"><tspan id="SvgjsTspan1065" style="text-decoration:;">Pod</tspan></tspan></text></g></g><g id="SvgjsG1066" transform="translate(1128,778)"><path id="SvgjsPath1067" d="M 0 4Q 0 0 4 0L 54 0Q 58 0 58 4L 58 31Q 58 35 54 35L 4 35Q 0 35 0 31Z" stroke="rgba(33,41,48,1)" stroke-width="2" fill-opacity="1" fill="#ffffff"></path><g id="SvgjsG1068"><text id="SvgjsText1069" font-family="微软雅黑" text-anchor="middle" font-size="13px" width="38px" fill="#323232" font-weight="400" align="middle" lineHeight="125%" anchor="middle" family="微软雅黑" size="13px" weight="400" font-style="" opacity="1" y="6.875" transform="rotate(0)"><tspan id="SvgjsTspan1070" dy="16" x="29"><tspan id="SvgjsTspan1071" style="text-decoration:;">Pod</tspan></tspan></text></g></g><g id="SvgjsG1072" transform="translate(1228,778)"><path id="SvgjsPath1073" d="M 0 4Q 0 0 4 0L 54 0Q 58 0 58 4L 58 31Q 58 35 54 35L 4 35Q 0 35 0 31Z" stroke="rgba(33,41,48,1)" stroke-width="2" fill-opacity="1" fill="#ffffff"></path><g id="SvgjsG1074"><text id="SvgjsText1075" font-family="微软雅黑" text-anchor="middle" font-size="13px" width="38px" fill="#323232" font-weight="400" align="middle" lineHeight="125%" anchor="middle" family="微软雅黑" size="13px" weight="400" font-style="" opacity="1" y="6.875" transform="rotate(0)"><tspan id="SvgjsTspan1076" dy="16" x="29"><tspan id="SvgjsTspan1077" style="text-decoration:;">Pod</tspan></tspan></text></g></g><g id="SvgjsG1078" transform="translate(335,496)"><path id="SvgjsPath1079" d="M 0 63.5C 0 -21.166666666666668 221 -21.166666666666668 221 63.5C 221 148.16666666666666 0 148.16666666666666 0 63.5Z" stroke="rgba(33,41,48,1)" stroke-width="2" fill-opacity="1" fill="#ffffff"></path><g id="SvgjsG1080"><text id="SvgjsText1081" font-family="微软雅黑" text-anchor="middle" font-size="13px" width="201px" fill="#323232" font-weight="400" align="middle" lineHeight="125%" anchor="middle" family="微软雅黑" size="13px" weight="400" font-style="" opacity="1" y="52.875" transform="rotate(0)"><tspan id="SvgjsTspan1082" dy="16" x="110.5"><tspan id="SvgjsTspan1083" style="text-decoration:;">ServiceA</tspan></tspan></text></g></g><g id="SvgjsG1084" transform="translate(815,496)"><path id="SvgjsPath1085" d="M 0 63.5C 0 -21.166666666666668 221 -21.166666666666668 221 63.5C 221 148.16666666666666 0 148.16666666666666 0 63.5Z" stroke="rgba(33,41,48,1)" stroke-width="2" fill-opacity="1" fill="#ffffff"></path><g id="SvgjsG1086"><text id="SvgjsText1087" font-family="微软雅黑" text-anchor="middle" font-size="13px" width="201px" fill="#323232" font-weight="400" align="middle" lineHeight="125%" anchor="middle" family="微软雅黑" size="13px" weight="400" font-style="" opacity="1" y="52.875" transform="rotate(0)"><tspan id="SvgjsTspan1088" dy="16" x="110.5"><tspan id="SvgjsTspan1089" style="text-decoration:;">ServiceB</tspan></tspan></text></g></g><g id="SvgjsG1090"><path id="SvgjsPath1091" d="M444.7395616658037 623.6494101476608L266.73757800310665 775.6621234684213" stroke="#323232" stroke-width="2" fill="none" marker-end="url(#SvgjsMarker1092)"></path></g><g id="SvgjsG1094"><path id="SvgjsPath1095" d="M446.4206366580523 623.3904204705831L807.6857080310117 776.594486305901" stroke="#323232" stroke-width="2" fill="none" marker-end="url(#SvgjsMarker1096)"></path></g><g id="SvgjsG1098"><path id="SvgjsPath1099" d="M924.5355714878973 623.2643438008416L363.4719426435697 777.0483623169703" stroke="#323232" stroke-width="2" fill="none" marker-end="url(#SvgjsMarker1100)"></path></g><g id="SvgjsG1102"><path id="SvgjsPath1103" d="M924.6831352854865 623.5768292972647L708.9407129722485 775.9234145298473" stroke="#323232" stroke-width="2" fill="none" marker-end="url(#SvgjsMarker1104)"></path></g><g id="SvgjsG1106"><path id="SvgjsPath1107" d="M926.3309442168522 623.5563557391451L1154.0086008193318 775.9971193390775" stroke="#323232" stroke-width="2" fill="none" marker-end="url(#SvgjsMarker1108)"></path></g><g id="SvgjsG1110"><path id="SvgjsPath1111" d="M926.405868736572 623.4235585344454L1253.738872548341 776.4751892759965" stroke="#323232" stroke-width="2" fill="none" marker-end="url(#SvgjsMarker1112)"></path></g><g id="SvgjsG1114"><path id="SvgjsPath1115" d="M557 559.5L811.4 559.5" stroke="#323232" stroke-width="2" fill="none" marker-end="url(#SvgjsMarker1116)"></path></g><g id="SvgjsG1118"><path id="SvgjsPath1119" d="M814 559.5L559.6 559.5" stroke="#323232" stroke-width="2" fill="none" marker-end="url(#SvgjsMarker1120)"></path></g><g id="SvgjsG1122" transform="translate(795.75,280)"><path id="SvgjsPath1123" d="M 16.666666666666668 0L 83.33333333333333 0C 105.55555555555556 0 105.55555555555556 50 83.33333333333333 50L 16.666666666666668 50C -5.555555555555556 50 -5.555555555555556 0 16.666666666666668 0Z" stroke="rgba(33,41,48,1)" stroke-width="2" fill-opacity="1" fill="#ffffff"></path><g id="SvgjsG1124"><text id="SvgjsText1125" font-family="微软雅黑" text-anchor="middle" font-size="13px" width="80px" fill="#323232" font-weight="400" align="middle" lineHeight="125%" anchor="middle" family="微软雅黑" size="13px" weight="400" font-style="" opacity="1" y="14.375" transform="rotate(0)"><tspan id="SvgjsTspan1126" dy="16" x="50"><tspan id="SvgjsTspan1127" style="text-decoration:;">Ingress</tspan></tspan></text></g></g><g id="SvgjsG1128"><path id="SvgjsPath1129" d="M844.8262927419358 330.38309907517464L448.82534612903083 494.6208433293713" stroke="#323232" stroke-width="2" fill="none" marker-end="url(#SvgjsMarker1130)"></path><rect id="SvgjsRect1132" width="26" height="16" x="633.8258194354834" y="404.501971202273" fill="#ffffff"></rect><text id="SvgjsText1133" font-family="微软雅黑" text-anchor="middle" font-size="13px" width="26px" fill="#323232" font-weight="400" align="top" lineHeight="16px" anchor="middle" family="微软雅黑" size="13px" weight="400" font-style="" opacity="1" y="401.876971202273" transform="rotate(0)"><tspan id="SvgjsTspan1134" dy="16" x="646.8258194354834"><tspan id="SvgjsTspan1135" style="text-decoration:;">规则</tspan></tspan></text></g><g id="SvgjsG1136"><path id="SvgjsPath1137" d="M846.1830399642972 330.9013747219228L923.9410561285299 492.75505100107785" stroke="#323232" stroke-width="2" fill="none" marker-end="url(#SvgjsMarker1138)"></path><rect id="SvgjsRect1140" width="26" height="16" x="872.0620480464136" y="403.82821286150033" fill="#ffffff"></rect><text id="SvgjsText1141" font-family="微软雅黑" text-anchor="middle" font-size="13px" width="26px" fill="#323232" font-weight="400" align="top" lineHeight="16px" anchor="middle" family="微软雅黑" size="13px" weight="400" font-style="" opacity="1" y="401.20321286150033" transform="rotate(0)"><tspan id="SvgjsTspan1142" dy="16" x="885.0620480464136"><tspan id="SvgjsTspan1143" style="text-decoration:;">规则</tspan></tspan></text></g><g id="SvgjsG1144" transform="translate(571.25,25)"><path id="SvgjsPath1145" d="M 16.666666666666668 0L 213.83333333333334 0C 236.05555555555554 0 236.05555555555554 50 213.83333333333334 50L 16.666666666666668 50C -5.555555555555556 50 -5.555555555555556 0 16.666666666666668 0Z" stroke="rgba(33,41,48,1)" stroke-width="2" fill-opacity="1" fill="#ffffff"></path><g id="SvgjsG1146"><text id="SvgjsText1147" font-family="微软雅黑" text-anchor="middle" font-size="13px" width="211px" fill="#323232" font-weight="400" align="middle" lineHeight="125%" anchor="middle" family="微软雅黑" size="13px" weight="400" font-style="" opacity="1" y="14.375" transform="rotate(0)"><tspan id="SvgjsTspan1148" dy="16" x="115.5"><tspan id="SvgjsTspan1149" style="text-decoration:;">F5、LVS、SLB、ELB</tspan></tspan></text></g></g><g id="SvgjsG1150"><path id="SvgjsPath1151" d="M687.1134737890311 75.78971508164133L843.541494359488 277.1570257060912" stroke="#323232" stroke-width="2" fill="none" marker-end="url(#SvgjsMarker1152)"></path></g><g id="SvgjsG1154" transform="translate(510.5,271)"><path id="SvgjsPath1155" d="M 16.666666666666668 0L 83.33333333333333 0C 105.55555555555556 0 105.55555555555556 50 83.33333333333333 50L 16.666666666666668 50C -5.555555555555556 50 -5.555555555555556 0 16.666666666666668 0Z" stroke="rgba(33,41,48,1)" stroke-width="2" fill-opacity="1" fill="#ffffff"></path><g id="SvgjsG1156"><text id="SvgjsText1157" font-family="微软雅黑" text-anchor="middle" font-size="13px" width="80px" fill="#323232" font-weight="400" align="middle" lineHeight="125%" anchor="middle" family="微软雅黑" size="13px" weight="400" font-style="" opacity="1" y="14.375" transform="rotate(0)"><tspan id="SvgjsTspan1158" dy="16" x="50"><tspan id="SvgjsTspan1159" style="text-decoration:;">Ingress</tspan></tspan></text></g></g><g id="SvgjsG1160"><path id="SvgjsPath1161" d="M559.9898438182253 321.86008178110984L457.96500482691243 493.8656525689221" stroke="#323232" stroke-width="2" fill="none" marker-end="url(#SvgjsMarker1162)"></path></g><g id="SvgjsG1164"><path id="SvgjsPath1165" d="M561.4017157212724 321.4323294554045L922.2538234034197 494.4436139605437" stroke="#323232" stroke-width="2" fill="none" marker-end="url(#SvgjsMarker1166)"></path></g><g id="SvgjsG1168"><path id="SvgjsPath1169" d="M685.9592424086865 75.84117847537655L562.4467273287286 267.9717574886444" stroke="#323232" stroke-width="2" fill="none" marker-end="url(#SvgjsMarker1170)"></path></g><g id="SvgjsG1172" transform="translate(38,150)"><path id="SvgjsPath1173" d="M 0 0L 100 0L 100 40L 0 40Z" stroke="none" fill="none"></path><g id="SvgjsG1174"><text id="SvgjsText1175" font-family="微软雅黑" text-anchor="middle" font-size="13px" width="100px" fill="#323232" font-weight="400" align="middle" lineHeight="125%" anchor="middle" family="微软雅黑" size="13px" weight="400" font-style="" opacity="1" y="9.375" transform="rotate(0)"><tspan id="SvgjsTspan1176" dy="16" x="50"><tspan id="SvgjsTspan1177" style="text-decoration:;">集群内部</tspan></tspan></text></g></g><g id="SvgjsG1178" transform="translate(401.5,150)"><path id="SvgjsPath1179" d="M 0 0L 628 0L 644 16L 644 70L 0 70L 0 0Z" stroke="none" fill-opacity="1" fill="#fff7bc"></path><path id="SvgjsPath1180" d="M 628 0L 628 16L 644 16Z" stroke="none" fill-opacity="1" fill="#e4d089"></path><path id="SvgjsPath1181" d="M 0 0L 628 0L 644 16L 644 70L 0 70L 0 0Z" stroke="none" fill="none"></path><g id="SvgjsG1182"><text id="SvgjsText1183" font-family="微软雅黑" text-anchor="middle" font-size="13px" width="624px" fill="#323232" font-weight="400" align="middle" lineHeight="125%" anchor="middle" family="微软雅黑" size="13px" weight="400" font-style="" opacity="1" y="7.875" transform="rotate(0)"><tspan id="SvgjsTspan1184" dy="16" x="322"><tspan id="SvgjsTspan1185" style="text-decoration:;">在DNS上添加到Ingress Nginx外部IP的A记录，</tspan></tspan><tspan id="SvgjsTspan1186" dy="16" x="322"><tspan id="SvgjsTspan1187" style="text-decoration:;">将外部需要访问内部 ServcieA 和 Service B 的指向 Ingress Nginx 的宿主机</tspan><tspan id="SvgjsTspan1188" style="text-decoration:;font-size: inherit;"> IP</tspan></tspan><tspan id="SvgjsTspan1189" dy="16" x="322"><tspan id="SvgjsTspan1190" style="text-decoration:;font-size: inherit;">Ingree Nginx 本身使用 HostNetwork 部署</tspan></tspan></text></g></g></svg>